<svg width="65" height="64" viewBox="0 0 65 64" fill="none" xmlns="http://www.w3.org/2000/svg">
<path d="M24.0681 17.0664C25.3814 17.0664 26.5937 17.1644 27.705 17.4584C28.8162 17.6544 29.7255 18.0464 30.5337 18.5364C31.3418 19.0264 31.948 19.7124 32.3521 20.5944C32.7562 21.4763 32.9582 22.5543 32.9582 23.7303C32.9582 25.1023 32.6552 26.2783 31.948 27.1603C31.3418 28.0422 30.3316 28.8262 29.1193 29.4142C30.8367 29.9042 32.15 30.7862 32.9582 31.9622C33.7664 33.1382 34.2715 34.6081 34.2715 36.2741C34.2715 37.6461 33.9685 38.8221 33.4633 39.8021C32.9582 40.782 32.15 41.664 31.2408 42.252C30.3316 42.84 29.2203 43.33 28.0081 43.624C26.7958 43.918 25.5835 44.114 24.3712 44.114H10.834V17.0664H24.0681ZM23.2599 28.0422C24.3712 28.0422 25.2804 27.7482 25.9876 27.2583C26.6947 26.7683 26.9978 25.8863 26.9978 24.8083C26.9978 24.2203 26.8968 23.6323 26.6947 23.2403C26.4927 22.8483 26.1896 22.5543 25.7855 22.2603C25.3814 22.0643 24.9773 21.8683 24.4722 21.7703C23.9671 21.6723 23.462 21.6723 22.8558 21.6723H16.9964V28.0422H23.2599ZM23.563 39.6061C24.1691 39.6061 24.7753 39.5081 25.2804 39.4101C25.7855 39.3121 26.2906 39.1161 26.6947 38.8221C27.0988 38.5281 27.4019 38.2341 27.705 37.7441C27.907 37.2541 28.1091 36.6661 28.1091 35.9801C28.1091 34.6081 27.705 33.6282 26.8968 32.9422C26.0886 32.3542 24.9773 32.0602 23.664 32.0602H16.9964V39.6061H23.563ZM43.0606 39.5081C43.8688 40.2921 45.0811 40.6841 46.6975 40.6841C47.8087 40.6841 48.819 40.3901 49.6272 39.9001C50.4354 39.3121 50.9405 38.7241 51.1425 38.1361H56.0927C55.2845 40.4881 54.0722 42.154 52.4559 43.232C50.8395 44.212 48.92 44.8 46.5965 44.8C44.9801 44.8 43.5657 44.506 42.2524 44.016C40.9391 43.526 39.9289 42.84 39.0197 41.86C38.1104 40.978 37.4033 39.9001 36.9992 38.6261C36.4941 37.3521 36.292 35.9801 36.292 34.4121C36.292 32.9422 36.4941 31.5702 36.9992 30.2962C37.5043 29.0222 38.2115 27.9442 39.1207 26.9643C40.0299 26.0823 41.1412 25.2983 42.3535 24.8083C43.6668 24.3183 44.9801 24.0243 46.5965 24.0243C48.3139 24.0243 49.8292 24.3183 51.1425 25.0043C52.4558 25.6903 53.4661 26.4743 54.2743 27.6502C55.0825 28.7282 55.6886 30.0022 56.0927 31.3742C56.2948 32.7462 56.3958 34.1181 56.2948 35.6861H41.6463C41.6463 37.2541 42.2524 38.7241 43.0606 39.5081ZM49.4251 29.2182C48.718 28.5322 47.6067 28.1402 46.2934 28.1402C45.3842 28.1402 44.677 28.3362 44.0709 28.6302C43.4647 28.9242 43.0606 29.3162 42.6565 29.7082C42.2524 30.1002 42.0504 30.5902 41.9494 31.0802C41.8483 31.5702 41.7473 31.9622 41.7473 32.3542H50.8395C50.6374 30.8842 50.1323 29.9042 49.4251 29.2182ZM40.535 18.9284H51.8497V21.5743H40.535V18.9284Z" fill="white"/>
</svg>
