<svg width="65" height="64" viewBox="0 0 65 64" fill="none" xmlns="http://www.w3.org/2000/svg">
<path d="M32.5002 51.2011C21.7446 51.2011 13 42.596 13 32.0085C13 21.4059 21.7446 12.8008 32.5002 12.8008C43.2557 12.8008 52.0004 21.4059 52.0004 31.9934C52.0004 42.5809 43.2557 51.2011 32.5002 51.2011ZM48.9382 34.6215C48.3745 34.4413 43.7889 33.1048 38.5635 33.9157C40.742 39.8027 41.6256 44.6083 41.7932 45.5995C45.5409 43.1216 48.207 39.1869 48.9382 34.6215ZM39.0053 47.1163C38.7616 45.6746 37.7866 40.6587 35.4557 34.6816C35.4252 34.6966 35.3795 34.7117 35.349 34.7117C25.9493 37.9405 22.5825 44.353 22.2778 44.9538C25.0962 47.1163 28.6458 48.4078 32.5002 48.4078C34.8006 48.4228 37.0096 47.9573 39.0053 47.1163ZM20.1298 42.9864C20.5106 42.3557 25.081 34.9069 33.6732 32.1586C33.8865 32.0836 34.115 32.0235 34.3283 31.9634C33.917 31.0323 33.46 30.1012 32.9724 29.1851C24.6544 31.633 16.5801 31.5279 15.8489 31.5129C15.8489 31.6781 15.8336 31.8433 15.8336 32.0085C15.8489 36.2284 17.4637 40.073 20.1298 42.9864ZM16.1992 28.6595C16.9457 28.6745 23.8013 28.7046 31.6013 26.6622C28.8439 21.8264 25.8579 17.7717 25.4314 17.186C20.7544 19.3485 17.2809 23.5835 16.1992 28.6595ZM28.6001 16.0746C29.0572 16.6754 32.0888 20.7301 34.8158 25.671C40.742 23.4784 43.2405 20.1745 43.5452 19.754C40.6049 17.186 36.7354 15.6241 32.5002 15.6241C31.1595 15.6241 29.8494 15.7893 28.6001 16.0746ZM45.3886 21.6462C45.0382 22.1118 42.2503 25.6409 36.0955 28.1189C36.4764 28.8998 36.8572 29.6957 37.2076 30.4917C37.3295 30.777 37.4514 31.0623 37.5733 31.3327C43.1186 30.6418 48.6183 31.7532 49.1667 31.8583C49.121 27.9987 47.7195 24.4395 45.3886 21.6462Z" fill="white"/>
</svg>
