<svg width="274" height="60" viewBox="0 0 274 60" fill="none" xmlns="http://www.w3.org/2000/svg">
<path d="M0 0H64.6083L32.2988 60L0 0Z" fill="#CF4A43"/>
<path d="M112.685 44.0859H68.1025V59.9883H112.685V44.0859Z" fill="#CF4A43"/>
<path d="M80.7844 0L48.4533 59.9894H80.7197L113.083 0H80.7844Z" fill="#CF4A43"/>
<path d="M125.392 0H129.236L131.729 18.5114H131.799L134.292 0H137.79L134.119 23.8636H129.063L125.392 0Z" fill="white"/>
<path d="M141.583 0H146.743L150.691 23.8636H146.881L146.189 19.125V19.1932H141.86L141.167 23.8636H137.635L141.583 0ZM145.739 15.9545L144.042 4.15909H143.972L142.31 15.9545H145.739Z" fill="white"/>
<path d="M152.539 0H156.349V20.4545H162.617V23.8636H152.539V0Z" fill="white"/>
<path d="M164.444 0H174.834V3.40909H168.254V9.71591H173.483V13.125H168.254V20.4545H174.834V23.8636H164.444V0Z" fill="white"/>
<path d="M177.025 0H182.67C184.633 0 186.064 0.454546 186.965 1.36364C187.865 2.25 188.315 3.625 188.315 5.48864V6.95455C188.315 9.43182 187.484 11 185.822 11.6591V11.7273C186.745 12 187.392 12.5568 187.761 13.3977C188.154 14.2386 188.35 15.3636 188.35 16.7727V20.9659C188.35 21.6477 188.373 22.2045 188.419 22.6364C188.465 23.0455 188.581 23.4545 188.765 23.8636H184.887C184.748 23.4773 184.656 23.1136 184.61 22.7727C184.563 22.4318 184.54 21.8182 184.54 20.9318V16.5682C184.54 15.4773 184.356 14.7159 183.986 14.2841C183.64 13.8523 183.028 13.6364 182.151 13.6364H180.835V23.8636H177.025V0ZM182.22 10.2273C182.982 10.2273 183.548 10.0341 183.917 9.64773C184.309 9.26136 184.506 8.61364 184.506 7.70455V5.86364C184.506 5 184.344 4.375 184.021 3.98864C183.721 3.60227 183.236 3.40909 182.566 3.40909H180.835V10.2273H182.22Z" fill="white"/>
<path d="M190.993 0H194.803V23.8636H190.993V0Z" fill="white"/>
<path d="M200.599 0H205.76L209.708 23.8636H205.898L205.205 19.125V19.1932H200.876L200.184 23.8636H196.651L200.599 0ZM204.755 15.9545L203.058 4.15909H202.989L201.327 15.9545H204.755Z" fill="white"/>
<path d="M125.634 56.3187L132.699 39.2051H125.98V35.796H136.785V39.1369L129.72 56.2505H136.785V59.6596H125.634V56.3187Z" fill="white"/>
<path d="M141.887 35.796H147.047L150.995 59.6596H147.185L146.493 54.921V54.9892H142.164L141.471 59.6596H137.939L141.887 35.796ZM146.043 51.7505L144.346 39.9551H144.276L142.614 51.7505H146.043Z" fill="white"/>
<path d="M152.843 35.796H158.488C160.451 35.796 161.882 36.2505 162.783 37.1596C163.683 38.046 164.133 39.421 164.133 41.2846V42.7505C164.133 45.2278 163.302 46.796 161.64 47.4551V47.5233C162.563 47.796 163.21 48.3528 163.579 49.1937C163.972 50.0346 164.168 51.1596 164.168 52.5687V56.7619C164.168 57.4437 164.191 58.0005 164.237 58.4324C164.283 58.8414 164.399 59.2505 164.583 59.6596H160.705C160.566 59.2733 160.474 58.9096 160.428 58.5687C160.381 58.2278 160.358 57.6142 160.358 56.7278V52.3642C160.358 51.2733 160.174 50.5119 159.804 50.0801C159.458 49.6483 158.846 49.4324 157.969 49.4324H156.653V59.6596H152.843V35.796ZM158.038 46.0233C158.8 46.0233 159.366 45.8301 159.735 45.4437C160.128 45.0574 160.324 44.4096 160.324 43.5005V41.6596C160.324 40.796 160.162 40.171 159.839 39.7846C159.539 39.3983 159.054 39.2051 158.384 39.2051H156.653V46.0233H158.038Z" fill="white"/>
<path d="M172.352 60.0005C170.505 60.0005 169.097 59.4892 168.127 58.4664C167.157 57.421 166.673 55.9324 166.673 54.0005V35.796H170.482V54.2733C170.482 55.0914 170.644 55.6824 170.967 56.046C171.313 56.4096 171.798 56.5914 172.421 56.5914C173.045 56.5914 173.518 56.4096 173.841 56.046C174.188 55.6824 174.361 55.0914 174.361 54.2733V35.796H178.032V54.0005C178.032 55.9324 177.547 57.421 176.577 58.4664C175.608 59.4892 174.199 60.0005 172.352 60.0005Z" fill="white"/>
<path d="M180.745 35.796H186.494C188.456 35.796 189.888 36.2505 190.788 37.1596C191.689 38.046 192.139 39.421 192.139 41.2846V42.2392C192.139 43.4664 191.931 44.4664 191.516 45.2392C191.123 46.0119 190.511 46.5687 189.68 46.9096V46.9778C191.573 47.6142 192.52 49.2733 192.52 51.9551V54.0005C192.52 55.8414 192.024 57.2505 191.031 58.2278C190.061 59.1824 188.63 59.6596 186.736 59.6596H180.745V35.796ZM186.044 45.5119C186.806 45.5119 187.371 45.3187 187.741 44.9324C188.133 44.546 188.329 43.8983 188.329 42.9892V41.6596C188.329 40.796 188.168 40.171 187.845 39.7846C187.544 39.3983 187.06 39.2051 186.39 39.2051H184.555V45.5119H186.044ZM186.736 56.2505C187.406 56.2505 187.902 56.0801 188.226 55.7392C188.549 55.3755 188.71 54.7619 188.71 53.8983V51.8187C188.71 50.7278 188.514 49.9778 188.122 49.5687C187.752 49.1369 187.129 48.921 186.252 48.921H184.555V56.2505H186.736Z" fill="white"/>
<path d="M194.747 35.796H205.136V39.2051H198.556V45.5119H203.786V48.921H198.556V56.2505H205.136V59.6596H194.747V35.796Z" fill="white"/>
<path d="M207.328 35.796H212.107L215.813 50.0801H215.882V35.796H219.276V59.6596H215.362L210.791 42.2392H210.722V59.6596H207.328V35.796Z" fill="white"/>
<path d="M222.107 35.796H225.917V45.8528L230.765 35.796H234.575L230.038 44.5574L234.644 59.6596H230.661L227.441 49.0233L225.917 52.0574V59.6596H222.107V35.796Z" fill="white"/>
<path d="M241.413 60.0005C239.542 60.0005 238.111 59.4778 237.118 58.4324C236.125 57.3869 235.629 55.9096 235.629 54.0005V41.4551C235.629 39.546 236.125 38.0687 237.118 37.0233C238.111 35.9778 239.542 35.4551 241.413 35.4551C243.283 35.4551 244.714 35.9778 245.707 37.0233C246.7 38.0687 247.196 39.546 247.196 41.4551V54.0005C247.196 55.9096 246.7 57.3869 245.707 58.4324C244.714 59.4778 243.283 60.0005 241.413 60.0005ZM241.413 56.5914C242.729 56.5914 243.387 55.8074 243.387 54.2392V41.2164C243.387 39.6483 242.729 38.8642 241.413 38.8642C240.097 38.8642 239.439 39.6483 239.439 41.2164V54.2392C239.439 55.8074 240.097 56.5914 241.413 56.5914Z" fill="white"/>
<path d="M248.7 35.796H252.545L255.038 54.3074H255.107L257.601 35.796H261.099L257.428 59.6596H252.371L248.7 35.796Z" fill="white"/>
<path d="M264.891 35.796H270.052L274 59.6596H270.19L269.498 54.921V54.9892H265.169L264.476 59.6596H260.943L264.891 35.796ZM269.047 51.7505L267.35 39.9551H267.281L265.619 51.7505H269.047Z" fill="white"/>
</svg>
