<svg width="274" height="60" viewBox="0 0 274 60" fill="none" xmlns="http://www.w3.org/2000/svg">
<path d="M0 0H64.6083L32.2988 60L0 0Z" fill="#CF4A43"/>
<path d="M112.684 44.0859H68.1016V59.9883H112.684V44.0859Z" fill="#CF4A43"/>
<path d="M80.7844 0L48.4533 59.9894H80.7197L113.083 0H80.7844Z" fill="#CF4A43"/>
<path d="M125.392 0H129.236L131.729 18.5114H131.799L134.292 0H137.79L134.119 23.8636H129.063L125.392 0Z" fill="#323232"/>
<path d="M141.583 0H146.743L150.691 23.8636H146.881L146.189 19.125V19.1932H141.86L141.167 23.8636H137.635L141.583 0ZM145.739 15.9545L144.042 4.15909H143.972L142.31 15.9545H145.739Z" fill="#323232"/>
<path d="M152.539 0H156.349V20.4545H162.617V23.8636H152.539V0Z" fill="#323232"/>
<path d="M164.444 0H174.834V3.40909H168.254V9.71591H173.483V13.125H168.254V20.4545H174.834V23.8636H164.444V0Z" fill="#323232"/>
<path d="M177.025 0H182.67C184.633 0 186.064 0.454546 186.965 1.36364C187.865 2.25 188.315 3.625 188.315 5.48864V6.95455C188.315 9.43182 187.484 11 185.822 11.6591V11.7273C186.745 12 187.392 12.5568 187.761 13.3977C188.154 14.2386 188.35 15.3636 188.35 16.7727V20.9659C188.35 21.6477 188.373 22.2045 188.419 22.6364C188.465 23.0455 188.581 23.4545 188.765 23.8636H184.887C184.748 23.4773 184.656 23.1136 184.61 22.7727C184.563 22.4318 184.54 21.8182 184.54 20.9318V16.5682C184.54 15.4773 184.356 14.7159 183.986 14.2841C183.64 13.8523 183.028 13.6364 182.151 13.6364H180.835V23.8636H177.025V0ZM182.22 10.2273C182.982 10.2273 183.548 10.0341 183.917 9.64773C184.309 9.26136 184.506 8.61364 184.506 7.70455V5.86364C184.506 5 184.344 4.375 184.021 3.98864C183.721 3.60227 183.236 3.40909 182.566 3.40909H180.835V10.2273H182.22Z" fill="#323232"/>
<path d="M190.993 0H194.803V23.8636H190.993V0Z" fill="#323232"/>
<path d="M200.599 0H205.76L209.708 23.8636H205.898L205.205 19.125V19.1932H200.876L200.184 23.8636H196.651L200.599 0ZM204.755 15.9545L203.058 4.15909H202.989L201.327 15.9545H204.755Z" fill="#323232"/>
<path d="M125.635 56.3187L132.7 39.2051H125.981V35.796H136.786V39.1369L129.721 56.2505H136.786V59.6596H125.635V56.3187Z" fill="#323232"/>
<path d="M141.888 35.796H147.048L150.996 59.6596H147.186L146.494 54.921V54.9892H142.165L141.472 59.6596H137.94L141.888 35.796ZM146.044 51.7505L144.347 39.9551H144.277L142.615 51.7505H146.044Z" fill="#323232"/>
<path d="M152.844 35.796H158.489C160.452 35.796 161.883 36.2505 162.784 37.1596C163.684 38.046 164.134 39.421 164.134 41.2846V42.7505C164.134 45.2278 163.303 46.796 161.641 47.4551V47.5233C162.564 47.796 163.211 48.3528 163.58 49.1937C163.973 50.0346 164.169 51.1596 164.169 52.5687V56.7619C164.169 57.4437 164.192 58.0005 164.238 58.4324C164.284 58.8414 164.4 59.2505 164.584 59.6596H160.706C160.567 59.2733 160.475 58.9096 160.429 58.5687C160.382 58.2278 160.359 57.6142 160.359 56.7278V52.3642C160.359 51.2733 160.175 50.5119 159.805 50.0801C159.459 49.6483 158.847 49.4324 157.97 49.4324H156.654V59.6596H152.844V35.796ZM158.039 46.0233C158.801 46.0233 159.367 45.8301 159.736 45.4437C160.128 45.0574 160.325 44.4096 160.325 43.5005V41.6596C160.325 40.796 160.163 40.171 159.84 39.7846C159.54 39.3983 159.055 39.2051 158.385 39.2051H156.654V46.0233H158.039Z" fill="#323232"/>
<path d="M172.353 60.0005C170.506 60.0005 169.098 59.4892 168.128 58.4664C167.158 57.421 166.673 55.9324 166.673 54.0005V35.796H170.483V54.2733C170.483 55.0914 170.645 55.6824 170.968 56.046C171.314 56.4096 171.799 56.5914 172.422 56.5914C173.046 56.5914 173.519 56.4096 173.842 56.046C174.189 55.6824 174.362 55.0914 174.362 54.2733V35.796H178.033V54.0005C178.033 55.9324 177.548 57.421 176.578 58.4664C175.609 59.4892 174.2 60.0005 172.353 60.0005Z" fill="#323232"/>
<path d="M180.746 35.796H186.495C188.457 35.796 189.889 36.2505 190.789 37.1596C191.69 38.046 192.14 39.421 192.14 41.2846V42.2392C192.14 43.4664 191.932 44.4664 191.517 45.2392C191.124 46.0119 190.512 46.5687 189.681 46.9096V46.9778C191.574 47.6142 192.521 49.2733 192.521 51.9551V54.0005C192.521 55.8414 192.025 57.2505 191.032 58.2278C190.062 59.1824 188.631 59.6596 186.737 59.6596H180.746V35.796ZM186.045 45.5119C186.807 45.5119 187.372 45.3187 187.742 44.9324C188.134 44.546 188.33 43.8983 188.33 42.9892V41.6596C188.33 40.796 188.169 40.171 187.846 39.7846C187.545 39.3983 187.061 39.2051 186.391 39.2051H184.556V45.5119H186.045ZM186.737 56.2505C187.407 56.2505 187.903 56.0801 188.227 55.7392C188.55 55.3755 188.711 54.7619 188.711 53.8983V51.8187C188.711 50.7278 188.515 49.9778 188.123 49.5687C187.753 49.1369 187.13 48.921 186.253 48.921H184.556V56.2505H186.737Z" fill="#323232"/>
<path d="M194.748 35.796H205.137V39.2051H198.557V45.5119H203.787V48.921H198.557V56.2505H205.137V59.6596H194.748V35.796Z" fill="#323232"/>
<path d="M207.329 35.796H212.108L215.814 50.0801H215.883V35.796H219.277V59.6596H215.363L210.792 42.2392H210.723V59.6596H207.329V35.796Z" fill="#323232"/>
<path d="M222.108 35.796H225.918V45.8528L230.766 35.796H234.576L230.039 44.5574L234.645 59.6596H230.662L227.442 49.0233L225.918 52.0574V59.6596H222.108V35.796Z" fill="#323232"/>
<path d="M241.414 60.0005C239.543 60.0005 238.112 59.4778 237.119 58.4324C236.126 57.3869 235.63 55.9096 235.63 54.0005V41.4551C235.63 39.546 236.126 38.0687 237.119 37.0233C238.112 35.9778 239.543 35.4551 241.414 35.4551C243.284 35.4551 244.715 35.9778 245.708 37.0233C246.701 38.0687 247.197 39.546 247.197 41.4551V54.0005C247.197 55.9096 246.701 57.3869 245.708 58.4324C244.715 59.4778 243.284 60.0005 241.414 60.0005ZM241.414 56.5914C242.73 56.5914 243.388 55.8074 243.388 54.2392V41.2164C243.388 39.6483 242.73 38.8642 241.414 38.8642C240.098 38.8642 239.44 39.6483 239.44 41.2164V54.2392C239.44 55.8074 240.098 56.5914 241.414 56.5914Z" fill="#323232"/>
<path d="M248.701 35.796H252.546L255.039 54.3074H255.108L257.602 35.796H261.1L257.429 59.6596H252.372L248.701 35.796Z" fill="#323232"/>
<path d="M264.892 35.796H270.053L274.001 59.6596H270.191L269.499 54.921V54.9892H265.17L264.477 59.6596H260.944L264.892 35.796ZM269.048 51.7505L267.351 39.9551H267.282L265.62 51.7505H269.048Z" fill="#323232"/>
</svg>
