<svg width="65" height="64" viewBox="0 0 65 64" fill="none" xmlns="http://www.w3.org/2000/svg">
<path fill-rule="evenodd" clip-rule="evenodd" d="M17.1974 15.2587C17.1062 15.0606 16.9076 14.9336 16.6889 14.9336H9.2262C8.81836 14.9336 8.54755 15.3546 8.71769 15.7241L23.9202 48.7423C24.0114 48.9403 24.21 49.0672 24.4287 49.0672H31.8914C32.2992 49.0672 32.57 48.6464 32.3999 48.2768L17.1974 15.2587ZM33.2766 15.2579C33.1852 15.0602 32.9868 14.9336 32.7684 14.9336H32.7639H24.3976C24.2 14.9336 24.0175 15.0386 23.9187 15.2091L22.2252 18.1297C22.0096 18.5016 22.2788 18.9667 22.7096 18.9667H25.9038C26.1221 18.9667 26.3206 19.0933 26.412 19.291L40.027 48.7429C40.1184 48.9406 40.3168 49.0672 40.5353 49.0672H48.0321C48.4403 49.0672 48.7111 48.6455 48.5404 48.276L33.2766 15.2579ZM48.3099 26.6393C51.5445 26.6393 54.1664 24.019 54.1664 20.7865C54.1664 17.554 51.5445 14.9336 48.3099 14.9336C45.0756 14.9336 42.4536 17.554 42.4536 20.7865C42.4536 24.019 45.0756 26.6393 48.3099 26.6393Z" fill="white"/>
</svg>
