<svg width="64" height="64" viewBox="0 0 64 64" fill="none" xmlns="http://www.w3.org/2000/svg">
<path d="M30.3208 38.2669C31.1364 39.8523 33.5271 41.1948 36.0655 41.1948C43.6243 41.1948 49.0667 34.1321 49.0667 25.3627C49.0667 16.9575 42.3094 10.666 33.6185 10.666C22.8041 10.666 17.0664 18.0358 17.0664 26.0697C17.0664 29.8046 19.0212 34.4464 22.1502 35.9246C22.6283 36.1531 22.8814 36.0531 22.9869 35.589C23.0713 35.2319 23.4932 33.5109 23.683 32.7039C23.7533 32.4468 23.6901 32.1683 23.5072 31.9755C22.4736 30.6972 21.6439 28.3549 21.6439 26.1697C21.6439 20.5566 25.8276 15.1222 32.9576 15.1222C39.1171 15.1222 43.4274 19.3783 43.4274 25.477C43.4274 32.3611 40.0031 37.1315 35.5451 37.1315C33.0841 37.1315 31.2419 35.0676 31.8325 32.5325C32.5427 29.5046 33.9068 26.2411 33.9068 24.0558C33.9068 22.0991 32.8732 20.4709 30.7356 20.4709C28.2183 20.4709 26.2003 23.1132 26.2003 26.6481C26.2003 28.9048 26.9527 30.4258 26.9527 30.4258C26.9527 30.4258 24.4706 41.0877 24.0135 43.073C23.4932 45.3582 23.7323 48.636 23.9573 50.6356C24.4706 50.8355 24.9768 51.0355 25.5042 51.1997C26.5238 49.5358 28.1691 46.6079 28.7527 44.3084C29.0621 43.1301 30.3208 38.2669 30.3208 38.2669Z" fill="white"/>
</svg>
