<svg width="65" height="64" viewBox="0 0 65 64" fill="none" xmlns="http://www.w3.org/2000/svg">
<path d="M50.2873 13.1398C50.2873 13.1398 54.4964 11.4776 54.1457 15.5143C54.0288 17.1766 52.9765 22.9942 52.158 29.2868L49.352 47.9271C49.352 47.9271 49.1182 50.6578 47.0136 51.1327C44.909 51.6076 41.7522 49.4706 41.1675 48.9956C40.6998 48.6395 32.3986 43.2967 29.4755 40.6847C28.6571 39.9723 27.7217 38.5475 29.5924 36.8854L41.8691 25.0126C43.2721 23.5879 44.6752 20.2635 38.8291 24.3003L22.4603 35.5794C22.4603 35.5794 20.5896 36.7666 17.0821 35.6981L9.48223 33.3236C9.48223 33.3236 6.67614 31.5427 11.4699 29.7617C23.1619 24.1814 37.5431 18.4825 50.2873 13.1398Z" fill="white"/>
</svg>
