<svg width="64" height="64" viewBox="0 0 64 64" fill="none" xmlns="http://www.w3.org/2000/svg">
<path d="M33.906 44.7994C19.3283 44.7994 11.0134 35.1898 10.667 19.1992H17.9692C18.209 30.9359 23.5924 35.9073 27.8564 36.9323V19.1992H34.7322V29.3214C38.9429 28.8858 43.3668 24.2731 44.8593 19.1992H51.735C51.1726 21.8307 50.0516 24.3223 48.4421 26.5181C46.8325 28.714 44.7691 30.5669 42.3808 31.9609C45.0467 33.2346 47.4014 35.0375 49.2894 37.2506C51.1775 39.4636 52.556 42.0365 53.334 44.7994H45.7654C45.0669 42.3996 43.6474 40.2514 41.6848 38.624C39.7221 36.9966 37.3035 35.9624 34.7322 35.651V44.7994H33.906Z" fill="white"/>
</svg>
